<svg width="31" height="42" viewBox="0 0 31 42" fill="none" xmlns="http://www.w3.org/2000/svg">
<path d="M1.0277 42V35.7955L15.5249 22.3722C16.7578 21.179 17.7919 20.1051 18.6271 19.1506C19.4756 18.196 20.1186 17.2614 20.5561 16.3466C20.9936 15.4186 21.2124 14.4176 21.2124 13.3438C21.2124 12.1506 20.9406 11.1231 20.397 10.2614C19.8535 9.38636 19.111 8.71686 18.1697 8.25284C17.2285 7.77557 16.1612 7.53693 14.968 7.53693C13.7218 7.53693 12.6347 7.78883 11.7067 8.29261C10.7786 8.7964 10.0627 9.51894 9.55895 10.4602C9.05516 11.4015 8.80327 12.5218 8.80327 13.821H0.629972C0.629972 11.1562 1.23319 8.8428 2.43963 6.88068C3.64607 4.91856 5.33641 3.40057 7.51065 2.3267C9.6849 1.25284 12.1906 0.715908 15.0277 0.715908C17.9444 0.715908 20.4832 1.23295 22.6442 2.26704C24.8184 3.28788 26.5088 4.70644 27.7152 6.52273C28.9216 8.33901 29.5249 10.4205 29.5249 12.767C29.5249 14.3049 29.2199 15.8229 28.6101 17.321C28.0135 18.8191 26.9463 20.483 25.4084 22.3125C23.8705 24.1288 21.7029 26.3097 18.9055 28.8551L12.9595 34.6818V34.9602H30.0618V42H1.0277Z" fill="#666666"/>
</svg>
