<svg width="33" height="43" viewBox="0 0 33 43" fill="none" xmlns="http://www.w3.org/2000/svg">
<path d="M16.4411 42.5568C13.4714 42.5568 10.8265 42.0464 8.50639 41.0256C6.19957 39.9915 4.37666 38.5729 3.03764 36.7699C1.71188 34.9536 1.02912 32.8589 0.989347 30.4858H9.6598C9.71283 31.4801 10.0376 32.3551 10.6342 33.1108C11.2441 33.8532 12.0528 34.4299 13.0604 34.8409C14.0679 35.2519 15.2015 35.4574 16.4609 35.4574C17.7734 35.4574 18.9335 35.2254 19.9411 34.7614C20.9486 34.2973 21.7375 33.6544 22.3075 32.8324C22.8776 32.0104 23.1626 31.0625 23.1626 29.9886C23.1626 28.9015 22.8577 27.9403 22.2479 27.1051C21.6513 26.2566 20.7895 25.5937 19.6626 25.1165C18.549 24.6392 17.2232 24.4006 15.6854 24.4006H11.8871V18.0767H15.6854C16.9846 18.0767 18.1314 17.8513 19.1257 17.4006C20.1333 16.9498 20.9155 16.3267 21.4723 15.5312C22.0291 14.7225 22.3075 13.7812 22.3075 12.7074C22.3075 11.6866 22.0623 10.7917 21.5717 10.0227C21.0945 9.24053 20.4183 8.63068 19.5433 8.19318C18.6816 7.75568 17.674 7.53693 16.5206 7.53693C15.3539 7.53693 14.2867 7.74905 13.3189 8.17329C12.3511 8.58428 11.5755 9.17424 10.9922 9.94318C10.4089 10.7121 10.0973 11.6136 10.0575 12.6477H1.80469C1.84446 10.3011 2.51397 8.23295 3.81321 6.44318C5.11245 4.65341 6.86245 3.25473 9.06321 2.24716C11.2772 1.22632 13.7763 0.715908 16.5604 0.715908C19.371 0.715908 21.8303 1.22632 23.9382 2.24716C26.0462 3.26799 27.6835 4.64678 28.8501 6.38352C30.0301 8.10701 30.6134 10.0426 30.6001 12.1903C30.6134 14.4706 29.9041 16.3731 28.4723 17.8977C27.0537 19.4223 25.2043 20.3902 22.924 20.8011V21.1193C25.9202 21.5038 28.2005 22.5445 29.7649 24.2415C31.3426 25.9252 32.1248 28.0331 32.1115 30.5653C32.1248 32.8854 31.4553 34.947 30.103 36.75C28.764 38.553 26.9145 39.9716 24.5547 41.0057C22.1948 42.0398 19.4903 42.5568 16.4411 42.5568Z" fill="#666666"/>
</svg>
