<svg width="20" height="11" viewBox="0 0 20 11" fill="none" xmlns="http://www.w3.org/2000/svg">
<path d="M9.99991 11C9.89024 11.0006 9.78152 10.9796 9.67999 10.9381C9.57846 10.8967 9.48611 10.8356 9.40824 10.7583L1.07491 2.42499C0.917991 2.26807 0.829834 2.05524 0.829834 1.83333C0.829834 1.61141 0.917991 1.39858 1.07491 1.24166C1.23183 1.08474 1.44466 0.996582 1.66658 0.996582C1.8885 0.996582 2.10132 1.08474 2.25824 1.24166L9.99991 8.99166L17.7416 1.24166C17.8985 1.08474 18.1113 0.996582 18.3332 0.996582C18.5552 0.996582 18.768 1.08474 18.9249 1.24166C19.0818 1.39858 19.17 1.61141 19.17 1.83333C19.17 2.05524 19.0818 2.26807 18.9249 2.42499L10.5916 10.7583C10.5137 10.8356 10.4214 10.8967 10.3198 10.9381C10.2183 10.9796 10.1096 11.0006 9.99991 11Z" fill="black"/>
</svg>
