<svg width="23" height="20" viewBox="0 0 23 20" fill="none" xmlns="http://www.w3.org/2000/svg">
<path d="M0.500001 11C0.500001 11.5304 0.710715 12.0391 1.08579 12.4142C1.46086 12.7893 1.96957 13 2.5 13L8.82 13L7.86 17.57C7.84 17.67 7.83 17.78 7.83 17.89C7.83 18.3 8 18.68 8.27 18.95L9.33 20L15.91 13.42C16.28 13.05 16.5 12.55 16.5 12L16.5 2C16.5 1.46957 16.2893 0.960859 15.9142 0.585786C15.5391 0.210714 15.0304 -6.5301e-07 14.5 -6.99382e-07L5.5 -1.48619e-06C4.67 -1.55875e-06 3.96 0.499998 3.66 1.22L0.64 8.27C0.55 8.5 0.500001 8.74 0.500001 9L0.500001 11ZM22.5 0L18.5 -3.49691e-07L18.5 12L22.5 12L22.5 0Z" fill="#DB4C1A"/>
</svg>
