<svg width="30" height="32" viewBox="0 0 30 32" fill="none" xmlns="http://www.w3.org/2000/svg">
<path d="M11.786 5.71415H18.2146C18.2146 4.86166 17.8759 4.0441 17.2731 3.4413C16.6703 2.83851 15.8528 2.49986 15.0003 2.49986C14.1478 2.49986 13.3302 2.83851 12.7274 3.4413C12.1246 4.0441 11.786 4.86166 11.786 5.71415ZM9.85742 5.71415C9.85742 4.35018 10.3993 3.04207 11.3637 2.0776C12.3282 1.11312 13.6363 0.571289 15.0003 0.571289C16.3642 0.571289 17.6724 1.11312 18.6368 2.0776C19.6013 3.04207 20.1431 4.35018 20.1431 5.71415H28.1789C28.4346 5.71415 28.6799 5.81574 28.8607 5.99658C29.0415 6.17742 29.1431 6.42269 29.1431 6.67843C29.1431 6.93418 29.0415 7.17945 28.8607 7.36028C28.6799 7.54112 28.4346 7.64272 28.1789 7.64272H26.4946L24.9298 26.418C24.816 27.7838 24.193 29.057 23.1845 29.9851C22.1759 30.9132 20.8554 31.4283 19.4849 31.4284H10.5157C9.14513 31.4283 7.82463 30.9132 6.81607 29.9851C5.80751 29.057 5.18455 27.7838 5.07071 26.418L3.50599 7.64272H1.82171C1.56596 7.64272 1.32069 7.54112 1.13985 7.36028C0.959016 7.17945 0.857422 6.93418 0.857422 6.67843C0.857422 6.42269 0.959016 6.17742 1.13985 5.99658C1.32069 5.81574 1.56596 5.71415 1.82171 5.71415H9.85742ZM13.0717 13.107C13.0717 12.8513 12.9701 12.606 12.7893 12.4252C12.6084 12.2443 12.3632 12.1427 12.1074 12.1427C11.8517 12.1427 11.6064 12.2443 11.4256 12.4252C11.2447 12.606 11.1431 12.8513 11.1431 13.107V24.0356C11.1431 24.2913 11.2447 24.5366 11.4256 24.7174C11.6064 24.8983 11.8517 24.9999 12.1074 24.9999C12.3632 24.9999 12.6084 24.8983 12.7893 24.7174C12.9701 24.5366 13.0717 24.2913 13.0717 24.0356V13.107ZM17.8931 12.1427C17.6374 12.1427 17.3921 12.2443 17.2113 12.4252C17.0304 12.606 16.9289 12.8513 16.9289 13.107V24.0356C16.9289 24.2913 17.0304 24.5366 17.2113 24.7174C17.3921 24.8983 17.6374 24.9999 17.8931 24.9999C18.1489 24.9999 18.3942 24.8983 18.575 24.7174C18.7558 24.5366 18.8574 24.2913 18.8574 24.0356V13.107C18.8574 12.8513 18.7558 12.606 18.575 12.4252C18.3942 12.2443 18.1489 12.1427 17.8931 12.1427Z" fill="#B7B7B7"/>
</svg>
