<svg width="36" height="36" viewBox="0 0 36 36" fill="none" xmlns="http://www.w3.org/2000/svg">
<path d="M10.7965 7.74061C10.7965 5.90258 9.30113 4.40723 7.46309 4.40723C5.62506 4.40723 4.12964 5.90258 4.12964 7.74061C4.12964 9.57864 5.62499 11.074 7.46302 11.074C9.30105 11.074 10.7965 9.57864 10.7965 7.74061ZM7.46302 8.96698C6.78677 8.96698 6.23665 8.41687 6.23665 7.74061C6.23665 7.06435 6.78677 6.51424 7.46302 6.51424C8.13928 6.51424 8.6894 7.06435 8.6894 7.74061C8.6894 8.41687 8.13928 8.96698 7.46302 8.96698Z" fill="#FE6700"/>
<path d="M35.9991 17.5989C35.9825 17.1838 35.7234 16.8173 35.3377 16.663L24.1392 12.1835C23.8146 12.0538 23.4468 12.0933 23.1573 12.2893C22.8678 12.4852 22.6944 12.812 22.6944 13.1617V28.6132C21.4068 28.9938 20.4085 30.053 20.115 31.3752H5.21334C4.09009 31.3752 3.17619 30.4614 3.17619 29.3381C3.17619 28.2148 4.09009 27.3009 5.21334 27.3009H14.7463C16.9138 27.3009 18.6772 25.5375 18.6772 23.37C18.6772 21.2026 16.9138 19.4391 14.7463 19.4391H9.32077L13.8534 11.8612C14.6216 10.5769 15.0277 9.10697 15.0277 7.61048C15.0277 3.46737 11.657 0.0966797 7.51387 0.0966797C3.37077 0.0966797 0 3.4673 0 7.6104V7.63727C0 9.11365 0.395975 10.5666 1.14507 11.8388L6.5552 21.0271C6.72398 21.2984 7.03503 21.5487 7.45943 21.5461H14.7464C15.7521 21.5461 16.5703 22.3643 16.5703 23.37C16.5703 24.3757 15.7521 25.1939 14.7464 25.1939H5.21334C2.92824 25.1939 1.06911 27.053 1.06911 29.3381C1.06911 31.6232 2.92824 33.4823 5.21334 33.4823H20.2608C20.7893 34.895 22.1526 35.9035 23.7474 35.9035C25.7994 35.9035 27.4688 34.2341 27.4688 32.1821C27.4688 30.4962 26.3416 29.0695 24.8015 28.6137V23.8531L35.4148 18.585C35.7869 18.4002 36.0159 18.014 35.9991 17.5989ZM2.96072 10.7697C2.40222 9.8211 2.10701 8.73793 2.10701 7.6372V7.61033C2.10701 4.62908 4.53247 2.20355 7.5138 2.20355C10.4951 2.20355 12.9206 4.62908 12.9206 7.61033C12.9206 8.72606 12.6178 9.82188 12.0451 10.7795L7.47016 18.4283L2.96072 10.7697ZM25.3617 32.1821C25.3617 33.0722 24.6374 33.7964 23.7474 33.7964C22.8573 33.7964 22.133 33.0721 22.133 32.1821C22.133 31.293 22.8556 30.5695 23.7442 30.5678C23.7455 30.5678 23.7468 30.568 23.748 30.568C23.7491 30.568 23.7503 30.5679 23.7514 30.5679C24.6397 30.5699 25.3617 31.2932 25.3617 32.1821ZM24.8015 21.5006V14.7178L32.3684 17.7446L24.8015 21.5006Z" fill="#FE6700"/>
</svg>
