<svg width="20" height="20" viewBox="0 0 20 20" fill="none" xmlns="http://www.w3.org/2000/svg">
<path d="M10 0C8.02219 0 6.08879 0.58649 4.4443 1.6853C2.79981 2.78412 1.51809 4.3459 0.761209 6.17316C0.00433284 8.00042 -0.1937 10.0111 0.192152 11.9509C0.578004 13.8907 1.53041 15.6725 2.92894 17.0711C4.32746 18.4696 6.10929 19.422 8.0491 19.8078C9.98891 20.1937 11.9996 19.9957 13.8268 19.2388C15.6541 18.4819 17.2159 17.2002 18.3147 15.5557C19.4135 13.9112 20 11.9778 20 10C19.9949 7.34939 18.9397 4.80881 17.0655 2.93455C15.1912 1.06028 12.6506 0.00508267 10 0ZM10 18.4615C8.32647 18.4615 6.69052 17.9653 5.29902 17.0355C3.90753 16.1057 2.823 14.7842 2.18256 13.2381C1.54213 11.6919 1.37456 9.99061 1.70105 8.34923C2.02754 6.70786 2.83343 5.20016 4.01679 4.01679C5.20016 2.83342 6.70786 2.02754 8.34924 1.70105C9.99062 1.37456 11.6919 1.54212 13.2381 2.18256C14.7842 2.82299 16.1057 3.90753 17.0355 5.29902C17.9653 6.69051 18.4615 8.32646 18.4615 10C18.459 12.2434 17.5667 14.3941 15.9804 15.9804C14.3941 17.5667 12.2434 18.459 10 18.4615ZM13.8462 11.9231C13.8436 12.6363 13.5592 13.3197 13.0548 13.824C12.5504 14.3284 11.8671 14.6128 11.1538 14.6154H10.7692V15.3846C10.7692 15.5886 10.6882 15.7843 10.5439 15.9285C10.3997 16.0728 10.204 16.1538 10 16.1538C9.79599 16.1538 9.60033 16.0728 9.45607 15.9285C9.31182 15.7843 9.23077 15.5886 9.23077 15.3846V14.6154H7.69231C7.4883 14.6154 7.29264 14.5343 7.14838 14.3901C7.00412 14.2458 6.92308 14.0502 6.92308 13.8462C6.92308 13.6421 7.00412 13.4465 7.14838 13.3022C7.29264 13.158 7.4883 13.0769 7.69231 13.0769H11.1538C11.4599 13.0769 11.7534 12.9554 11.9697 12.739C12.1861 12.5226 12.3077 12.2291 12.3077 11.9231C12.3077 11.6171 12.1861 11.3236 11.9697 11.1072C11.7534 10.8908 11.4599 10.7692 11.1538 10.7692H8.84616C8.13211 10.7692 7.44731 10.4856 6.94241 9.98067C6.4375 9.47576 6.15385 8.79097 6.15385 8.07692C6.15385 7.36288 6.4375 6.67808 6.94241 6.17317C7.44731 5.66827 8.13211 5.38461 8.84616 5.38461H9.23077V4.61538C9.23077 4.41137 9.31182 4.21571 9.45607 4.07146C9.60033 3.9272 9.79599 3.84615 10 3.84615C10.204 3.84615 10.3997 3.9272 10.5439 4.07146C10.6882 4.21571 10.7692 4.41137 10.7692 4.61538V5.38461H12.3077C12.5117 5.38461 12.7074 5.46566 12.8516 5.60992C12.9959 5.75418 13.0769 5.94983 13.0769 6.15384C13.0769 6.35786 12.9959 6.55351 12.8516 6.69777C12.7074 6.84203 12.5117 6.92308 12.3077 6.92308H8.84616C8.54014 6.92308 8.24665 7.04464 8.03026 7.26103C7.81388 7.47742 7.69231 7.7709 7.69231 8.07692C7.69231 8.38294 7.81388 8.67643 8.03026 8.89281C8.24665 9.1092 8.54014 9.23077 8.84616 9.23077H11.1538C11.8671 9.2333 12.5504 9.51777 13.0548 10.0221C13.5592 10.5265 13.8436 11.2098 13.8462 11.9231Z" fill="white"/>
</svg>
