<svg width="36" height="36" viewBox="0 0 36 36" fill="none" xmlns="http://www.w3.org/2000/svg">
<mask id="mask0_51_125" style="mask-type:luminance" maskUnits="userSpaceOnUse" x="0" y="0" width="36" height="36">
<path d="M0 0H36V36H0V0Z" fill="white"/>
</mask>
<g mask="url(#mask0_51_125)">
<path d="M28.6447 18.3436C29.5268 17.3455 30.3075 16.2155 30.99 14.9871C32.34 12.557 32.5349 10.5439 32.1949 8.94264L34.8047 6.33285L34.5573 6.08542C33.6105 5.13859 32.1179 5.01505 31.0283 5.79327C31.8067 4.70371 31.683 3.21118 30.7363 2.26436L30.4888 2.017L28.3211 4.18466C22.3881 2.29255 20.0223 7.80442 19.1866 10.8407L8.32605 4.57033C6.38444 7.9333 7.53666 12.2335 10.8996 14.1752L12.805 15.2753C8.7274 15.0868 4.36029 16.8885 1.83944 17.5554C0.975372 17.7839 0.770412 18.9144 1.49927 19.4319L2.76096 20.3276L2.39674 22.3089C2.23671 23.1798 3.15759 23.8473 3.93539 23.4242L9.62747 20.3276C13.119 22.0734 16.2028 22.8406 18.9058 22.8429" stroke="#666666" stroke-width="2" stroke-miterlimit="10" stroke-linecap="round" stroke-linejoin="round"/>
<path d="M34.9453 26.5078C34.9453 31.1677 31.1677 34.9453 26.5078 34.9453C21.8479 34.9453 18.0703 31.1677 18.0703 26.5078C18.0703 21.8479 21.8479 18.0703 26.5078 18.0703C31.1677 18.0703 34.9453 21.8479 34.9453 26.5078Z" stroke="#666666" stroke-width="2" stroke-miterlimit="10" stroke-linecap="round" stroke-linejoin="round"/>
<path d="M11.6107 6.46688C11.7158 4.37403 12.7509 2.3498 14.6004 1.05479L19.9397 8.68018" stroke="#666666" stroke-width="2" stroke-miterlimit="10" stroke-linecap="round" stroke-linejoin="round"/>
<path d="M27.0703 7.73437C27.0703 8.31684 26.5981 8.78906 26.0156 8.78906C25.4332 8.78906 24.9609 8.31684 24.9609 7.73437C24.9609 7.15191 25.4332 6.67969 26.0156 6.67969C26.5981 6.67969 27.0703 7.15191 27.0703 7.73437Z" fill="#666666"/>
<path d="M26.5078 26.5078H29.3203" stroke="#666666" stroke-width="2" stroke-miterlimit="10" stroke-linecap="round" stroke-linejoin="round"/>
<path d="M26.5078 26.5078V22.2891" stroke="#666666" stroke-width="2" stroke-miterlimit="10" stroke-linecap="round" stroke-linejoin="round"/>
</g>
</svg>
