<svg width="18" height="16" viewBox="0 0 18 16" fill="none" xmlns="http://www.w3.org/2000/svg">
<path d="M17.3334 15.5H0.666687V13.8333H1.50002V1.33333C1.50002 1.11232 1.58782 0.900358 1.7441 0.744078C1.90038 0.587797 2.11234 0.5 2.33335 0.5H14C14.221 0.5 14.433 0.587797 14.5893 0.744078C14.7456 0.900358 14.8334 1.11232 14.8334 1.33333V5.5H16.5V13.8333H17.3334V15.5ZM13.1667 13.8333H14.8334V7.16667H9.83335V13.8333H11.5V8.83333H13.1667V13.8333ZM13.1667 5.5V2.16667H3.16669V13.8333H8.16669V5.5H13.1667ZM4.83335 7.16667H6.50002V8.83333H4.83335V7.16667ZM4.83335 10.5H6.50002V12.1667H4.83335V10.5ZM4.83335 3.83333H6.50002V5.5H4.83335V3.83333Z" fill="#666666"/>
</svg>
