<svg width="28" height="36" viewBox="0 0 28 36" fill="none" xmlns="http://www.w3.org/2000/svg">
<path d="M24.2676 20.2993H15.7007V12.2987C15.5394 7.90768 9.223 7.88929 9.05775 12.2987C9.05775 12.2987 9.05775 24.4656 9.05775 24.4656L7.74806 23.1559C6.24092 21.6487 3.80097 21.6465 2.29158 23.1559C2.29122 23.1563 2.2908 23.1567 2.29038 23.157C0.784082 24.6634 0.781123 27.1043 2.29038 28.6136L9.36732 35.6905C9.56555 35.8888 9.8344 36.0002 10.1147 36.0002H25.9658C26.5496 36.0002 27.0229 35.5269 27.0229 34.9431V23.0548C27.0229 21.5354 25.7869 20.2993 24.2676 20.2993ZM24.9088 33.8859H10.5526L3.78533 27.1186C3.09254 26.4258 3.11671 25.3204 3.78533 24.652C3.78554 24.6517 3.78575 24.6515 3.78603 24.6512C3.78617 24.6511 3.78638 24.6509 3.78653 24.6507C4.46846 23.9688 5.57103 23.9686 6.25325 24.6507L9.36739 27.7648C10.027 28.4273 11.1742 27.9526 11.1718 27.0174V12.2986C11.1718 11.6409 11.7035 11.0912 12.3792 11.0912C13.045 11.0912 13.5866 11.6329 13.5866 12.2986V21.3563C13.5866 21.9401 14.0599 22.4134 14.6437 22.4134H24.2675C24.6211 22.4134 24.9088 22.701 24.9088 23.0546C24.9088 23.0547 24.9088 33.8859 24.9088 33.8859Z" fill="#666666"/>
<path d="M12.3792 4.44824C8.05047 4.44824 4.52881 7.96991 4.52881 12.2986C4.52881 12.8824 5.00209 13.3556 5.58586 13.3556C6.16963 13.3556 6.64291 12.8824 6.64291 12.2986C6.64291 9.13555 9.21619 6.56234 12.3792 6.56234C15.5421 6.56234 18.1154 9.13562 18.1154 12.2986C18.1154 12.8824 18.5887 13.3556 19.1725 13.3556C19.7562 13.3556 20.2295 12.8824 20.2295 12.2986C20.2296 7.96984 16.7079 4.44824 12.3792 4.44824Z" fill="#666666"/>
<path d="M2.1141 12.2985C2.631 -1.30264 22.1309 -1.29559 22.6444 12.2986C22.6444 12.8823 23.1177 13.3555 23.7014 13.3555C24.2852 13.3555 24.7585 12.8823 24.7585 12.2985C24.1353 -4.10339 0.61929 -4.09564 0 12.2986C0.0508088 13.6987 2.06449 13.6976 2.1141 12.2985Z" fill="#666666"/>
</svg>
