<svg width="21" height="21" viewBox="0 0 21 21" fill="none" xmlns="http://www.w3.org/2000/svg">
<g opacity="0.8">
<path d="M10.5 14.875C10.7479 14.875 10.9559 14.791 11.1239 14.623C11.2913 14.4556 11.375 14.2479 11.375 14V10.4781C11.375 10.2302 11.2913 10.026 11.1239 9.86562C10.9559 9.70521 10.7479 9.625 10.5 9.625C10.2521 9.625 10.0444 9.70871 9.877 9.87612C9.709 10.0441 9.625 10.2521 9.625 10.5V14.0219C9.625 14.2698 9.709 14.474 9.877 14.6344C10.0444 14.7948 10.2521 14.875 10.5 14.875ZM10.5 7.875C10.7479 7.875 10.9559 7.791 11.1239 7.623C11.2913 7.45558 11.375 7.24792 11.375 7C11.375 6.75208 11.2913 6.54412 11.1239 6.37612C10.9559 6.20871 10.7479 6.125 10.5 6.125C10.2521 6.125 10.0444 6.20871 9.877 6.37612C9.709 6.54412 9.625 6.75208 9.625 7C9.625 7.24792 9.709 7.45558 9.877 7.623C10.0444 7.791 10.2521 7.875 10.5 7.875ZM10.5 19.25C9.28958 19.25 8.15208 19.0202 7.0875 18.5605C6.02292 18.1014 5.09687 17.4781 4.30937 16.6906C3.52187 15.9031 2.89858 14.9771 2.4395 13.9125C1.97983 12.8479 1.75 11.7104 1.75 10.5C1.75 9.28958 1.97983 8.15208 2.4395 7.0875C2.89858 6.02292 3.52187 5.09687 4.30937 4.30937C5.09687 3.52187 6.02292 2.89829 7.0875 2.43862C8.15208 1.97954 9.28958 1.75 10.5 1.75C11.7104 1.75 12.8479 1.97954 13.9125 2.43862C14.9771 2.89829 15.9031 3.52187 16.6906 4.30937C17.4781 5.09687 18.1014 6.02292 18.5605 7.0875C19.0202 8.15208 19.25 9.28958 19.25 10.5C19.25 11.7104 19.0202 12.8479 18.5605 13.9125C18.1014 14.9771 17.4781 15.9031 16.6906 16.6906C15.9031 17.4781 14.9771 18.1014 13.9125 18.5605C12.8479 19.0202 11.7104 19.25 10.5 19.25ZM10.5 17.5C12.4396 17.5 14.0913 16.8184 15.4551 15.4551C16.8184 14.0913 17.5 12.4396 17.5 10.5C17.5 8.56042 16.8184 6.90871 15.4551 5.54487C14.0913 4.18162 12.4396 3.5 10.5 3.5C8.56042 3.5 6.909 4.18162 5.54575 5.54487C4.18192 6.90871 3.5 8.56042 3.5 10.5C3.5 12.4396 4.18192 14.0913 5.54575 15.4551C6.909 16.8184 8.56042 17.5 10.5 17.5Z" fill="white"/>
</g>
</svg>
