<svg width="23" height="20" viewBox="0 0 23 20" fill="none" xmlns="http://www.w3.org/2000/svg">
<path d="M22.5 9C22.5 8.46957 22.2893 7.96086 21.9142 7.58579C21.5391 7.21071 21.0304 7 20.5 7H14.18L15.14 2.43C15.16 2.33 15.17 2.22 15.17 2.11C15.17 1.7 15 1.32 14.73 1.05L13.67 0L7.09 6.58C6.72 6.95 6.5 7.45 6.5 8V18C6.5 18.5304 6.71071 19.0391 7.08579 19.4142C7.46086 19.7893 7.96957 20 8.5 20H17.5C18.33 20 19.04 19.5 19.34 18.78L22.36 11.73C22.45 11.5 22.5 11.26 22.5 11V9ZM0.5 20H4.5V8H0.5V20Z" fill="#00B533"/>
</svg>
