<svg width="21" height="18" viewBox="0 0 21 18" fill="none" xmlns="http://www.w3.org/2000/svg">
<path d="M15.5 4.66045e-09C16.2652 -4.26217e-05 17.0015 0.292325 17.5583 0.817284C18.115 1.34224 18.4501 2.06011 18.495 2.824L18.5 3V7.35L19.094 7.086C19.708 6.813 20.416 7.236 20.494 7.884L20.5 8V16C20.5002 16.5046 20.3096 16.9906 19.9665 17.3605C19.6234 17.7305 19.1532 17.9572 18.65 17.995L18.5 18H2.5C1.99542 18.0002 1.50943 17.8096 1.13945 17.4665C0.769471 17.1234 0.542843 16.6532 0.505 16.15L0.5 16V8C0.5 7.328 1.175 6.853 1.797 7.045L1.907 7.086L2.5 7.35V3C2.49996 2.23479 2.79233 1.49849 3.31728 0.941739C3.84224 0.384993 4.56011 0.0498925 5.324 0.00500012L5.5 4.66045e-09H15.5ZM15.5 2H5.5C5.23478 2 4.98043 2.10536 4.79289 2.29289C4.60536 2.48043 4.5 2.73478 4.5 3V8.239L10.5 10.906L16.5 8.239V3C16.5 2.73478 16.3946 2.48043 16.2071 2.29289C16.0196 2.10536 15.7652 2 15.5 2ZM10.5 5C10.7549 5.00028 11 5.09788 11.1854 5.27285C11.3707 5.44782 11.4822 5.68695 11.4972 5.94139C11.5121 6.19584 11.4293 6.44638 11.2657 6.64183C11.1021 6.83729 10.8701 6.9629 10.617 6.993L10.5 7H8.5C8.24512 6.99972 7.99997 6.90212 7.81463 6.72715C7.6293 6.55218 7.51776 6.31305 7.50283 6.05861C7.48789 5.80416 7.57067 5.55362 7.73426 5.35817C7.89785 5.16271 8.1299 5.0371 8.383 5.007L8.5 5H10.5Z" fill="#FEB700"/>
</svg>
