<svg width="35" height="22" viewBox="0 0 35 22" fill="none" xmlns="http://www.w3.org/2000/svg">
<path d="M27.5 18.5V21.5H9.5V18.5C9.5 18.5 9.5 12.5 18.5 12.5C27.5 12.5 27.5 18.5 27.5 18.5ZM23 5C23 4.10999 22.7361 3.23996 22.2416 2.49994C21.7471 1.75991 21.0443 1.18314 20.2221 0.842544C19.3998 0.50195 18.495 0.412835 17.6221 0.586468C16.7492 0.760102 15.9474 1.18868 15.318 1.81802C14.6887 2.44736 14.2601 3.24918 14.0865 4.1221C13.9128 4.99501 14.0019 5.89981 14.3425 6.72208C14.6831 7.54434 15.2599 8.24715 15.9999 8.74161C16.74 9.23608 17.61 9.5 18.5 9.5C19.6935 9.5 20.8381 9.0259 21.682 8.18198C22.5259 7.33807 23 6.19348 23 5ZM27.8 12.59C28.6199 13.3465 29.281 14.2587 29.7446 15.2734C30.2081 16.2881 30.4649 17.385 30.5 18.5V21.5H35V18.5C35 18.5 35 13.325 27.8 12.59ZM26 0.500002C25.5468 0.500273 25.0964 0.571122 24.665 0.710002C25.5426 1.96846 26.0131 3.46578 26.0131 5C26.0131 6.53423 25.5426 8.03155 24.665 9.29C25.0964 9.42888 25.5468 9.49973 26 9.5C27.1935 9.5 28.3381 9.0259 29.182 8.18198C30.0259 7.33807 30.5 6.19348 30.5 5C30.5 3.80653 30.0259 2.66194 29.182 1.81802C28.3381 0.974108 27.1935 0.500002 26 0.500002ZM10.01 6.38L11.75 8.495L4.625 15.62L0.5 11.12L2.24 9.38L4.625 11.75L10.01 6.38Z" fill="#FE6700"/>
</svg>
