<svg width="22" height="42" viewBox="0 0 22 42" fill="none" xmlns="http://www.w3.org/2000/svg">
<path d="M22 20.5C22 23.3234 21.4439 26.1192 20.3634 28.7277C19.2829 31.3362 17.6993 33.7063 15.7028 35.7028C13.7063 37.6993 11.3362 39.2829 8.72769 40.3634C6.11919 41.4439 3.32342 42 0.5 42V20.5H22Z" fill="#666666"/>
<path d="M16.0259 12.8473L19.5951 16.4157L18.4159 17.5948L14.8476 14.0257C13.5199 15.09 11.8684 15.6689 10.1667 15.6665C6.02675 15.6665 2.66675 12.3065 2.66675 8.1665C2.66675 4.0265 6.02675 0.666504 10.1667 0.666504C14.3067 0.666504 17.6667 4.0265 17.6667 8.1665C17.6692 9.86817 17.0903 11.5196 16.0259 12.8473ZM14.3542 12.229C15.4118 11.1414 16.0025 9.68353 16.0001 8.1665C16.0001 4.94317 13.3892 2.33317 10.1667 2.33317C6.94341 2.33317 4.33341 4.94317 4.33341 8.1665C4.33341 11.389 6.94341 13.9998 10.1667 13.9998C11.6838 14.0022 13.1417 13.4116 14.2292 12.354L14.3542 12.229Z" fill="#FE6700"/>
</svg>
