<svg width="43" height="41" viewBox="0 0 43 41" fill="none" xmlns="http://www.w3.org/2000/svg">
<path d="M40.3334 15.5H23.6667V13.8333H24.5001V1.33333C24.5001 1.11232 24.5879 0.900358 24.7442 0.744078C24.9004 0.587797 25.1124 0.5 25.3334 0.5H37.0001C37.2211 0.5 37.4331 0.587797 37.5893 0.744078C37.7456 0.900358 37.8334 1.11232 37.8334 1.33333V5.5H39.5001V13.8333H40.3334V15.5ZM36.1667 13.8333H37.8334V7.16667H32.8334V13.8333H34.5001V8.83333H36.1667V13.8333ZM36.1667 5.5V2.16667H26.1667V13.8333H31.1667V5.5H36.1667ZM27.8334 7.16667H29.5001V8.83333H27.8334V7.16667ZM27.8334 10.5H29.5001V12.1667H27.8334V10.5ZM27.8334 3.83333H29.5001V5.5H27.8334V3.83333Z" fill="#666666"/>
<path d="M43 19.5C43 22.3234 42.4439 25.1192 41.3634 27.7277C40.2829 30.3362 38.6993 32.7063 36.7028 34.7028C34.7063 36.6993 32.3362 38.2829 29.7277 39.3634C27.1192 40.4439 24.3234 41 21.5 41C18.6766 41 15.8808 40.4439 13.2723 39.3634C10.6638 38.2829 8.29366 36.6993 6.2972 34.7028C4.30074 32.7063 2.71707 30.3362 1.63659 27.7277C0.556113 25.1192 -2.46831e-07 22.3234 0 19.5L21.5 19.5H43Z" fill="#666666"/>
</svg>
