<svg width="43" height="43" viewBox="0 0 43 43" fill="none" xmlns="http://www.w3.org/2000/svg">
<path d="M43 21.5C43 25.7523 41.739 29.9091 39.3766 33.4448C37.0141 36.9804 33.6563 39.7361 29.7277 41.3634C25.7991 42.9907 21.4762 43.4165 17.3056 42.5869C13.135 41.7573 9.30403 39.7096 6.2972 36.7028C3.29038 33.696 1.2427 29.865 0.413116 25.6944C-0.416466 21.5238 0.00930597 17.2009 1.63659 13.2723C3.26387 9.34369 6.01958 5.98585 9.55524 3.6234C13.0909 1.26095 17.2477 -5.07082e-08 21.5 0V21.5H43Z" fill="#666666"/>
<path d="M31.7954 8.87529V4.87578C32.651 5.02009 33.4577 5.37117 34.1474 5.89838C34.2849 5.99267 34.4462 6.04382 34.6133 6.04607C35.1484 6.04607 35.5848 5.61543 35.5904 5.08028C35.5915 4.85078 35.5018 4.63035 35.3405 4.46673C34.344 3.61341 33.0941 3.11007 31.7841 3.03508V1.69431C31.7841 1.31139 31.4739 1.0012 31.0909 1.0012C31.083 1.00008 31.075 1.00008 31.0671 1.00008C30.6785 0.994382 30.3581 1.3046 30.3524 1.69431V2.98962C27.7959 3.17142 26.0574 4.75079 26.0574 6.85281C26.0574 9.43203 28.2504 10.1479 30.3524 10.716V15.2609C29.2434 15.1121 28.1981 14.6519 27.3413 13.9316C27.18 13.8032 26.98 13.7316 26.7732 13.727C26.2494 13.7634 25.8461 14.202 25.8529 14.7269C25.8517 14.9564 25.9415 15.1769 26.1028 15.3405C27.2766 16.3972 28.7855 17.0051 30.3637 17.0562V18.3061C30.3637 18.314 30.3648 18.322 30.3648 18.3299C30.383 18.7185 30.7136 19.0185 31.1022 18.9992C31.4851 18.9992 31.7953 18.689 31.7953 18.3061V17.0335C34.8972 16.829 36.1471 14.9428 36.1471 12.9431C36.1472 10.2615 33.8975 9.44343 31.7954 8.87529ZM30.3638 8.51171C29.1253 8.14812 28.1595 7.77317 28.1595 6.71647C28.1595 5.65977 29.0344 4.89849 30.3638 4.79625V8.51171ZM31.7954 15.2836V11.1478C33.0794 11.5114 34.0792 11.9999 34.0679 13.193C34.0679 14.0565 33.477 15.0791 31.7954 15.2836Z" fill="#666666"/>
</svg>
