<svg width="18" height="18" viewBox="0 0 18 18" fill="none" xmlns="http://www.w3.org/2000/svg">
<path d="M14.0258 12.8473L17.595 16.4157L16.4158 17.5948L12.8475 14.0257C11.5198 15.09 9.86832 15.6689 8.16666 15.6665C4.02666 15.6665 0.666656 12.3065 0.666656 8.1665C0.666656 4.0265 4.02666 0.666504 8.16666 0.666504C12.3067 0.666504 15.6667 4.0265 15.6667 8.1665C15.6691 9.86817 15.0902 11.5196 14.0258 12.8473ZM12.3542 12.229C13.4118 11.1414 14.0024 9.68353 14 8.1665C14 4.94317 11.3892 2.33317 8.16666 2.33317C4.94332 2.33317 2.33332 4.94317 2.33332 8.1665C2.33332 11.389 4.94332 13.9998 8.16666 13.9998C9.68368 14.0022 11.1416 13.4116 12.2292 12.354L12.3542 12.229Z" fill="#FE6700"/>
</svg>
