<svg width="18" height="18" viewBox="0 0 18 18" fill="none" xmlns="http://www.w3.org/2000/svg">
<path d="M14.0001 0.666504H4.00008C2.15913 0.666504 0.666748 2.15889 0.666748 3.99984V13.9998C0.666748 15.8408 2.15913 17.3332 4.00008 17.3332H14.0001C15.841 17.3332 17.3334 15.8408 17.3334 13.9998V3.99984C17.3334 2.15889 15.841 0.666504 14.0001 0.666504Z" fill="#20BF55"/>
<path d="M8.36666 11.3082C8.14635 11.3117 7.93361 11.2278 7.775 11.0748L5.875 9.20815C5.71697 9.05234 5.62732 8.84013 5.62575 8.61821C5.62419 8.39629 5.71085 8.18284 5.86666 8.02482C6.02248 7.86679 6.23469 7.77714 6.4566 7.77557C6.67852 7.77401 6.89197 7.86067 7.05 8.01648L8.36666 9.30815L11.7833 5.97482C11.8616 5.89767 11.9543 5.83668 12.0561 5.79535C12.1579 5.75401 12.2668 5.73313 12.3767 5.73391C12.4866 5.73468 12.5953 5.75709 12.6965 5.79986C12.7977 5.84262 12.8895 5.9049 12.9667 5.98315C13.0438 6.0614 13.1048 6.15407 13.1461 6.25589C13.1875 6.3577 13.2083 6.46666 13.2076 6.57654C13.2068 6.68643 13.1844 6.79508 13.1416 6.8963C13.0989 6.99752 13.0366 7.08933 12.9583 7.16648L8.95 11.1082C8.78828 11.247 8.57953 11.3185 8.36666 11.3082Z" fill="#EDEBEA"/>
</svg>
