<svg width="107" height="109" viewBox="0 0 107 109" fill="none" xmlns="http://www.w3.org/2000/svg">
<path d="M50.1668 1.22691C52.1845 -0.12111 54.8155 -0.121108 56.8332 1.22691L62.5873 5.07129C63.8136 5.89057 65.2986 6.22952 66.7589 6.02343L73.6113 5.0564C76.014 4.71731 78.3844 5.85886 79.6174 7.94882L83.1337 13.9091C83.8831 15.1793 85.074 16.129 86.4791 16.577L93.0724 18.6788C95.3843 19.4158 97.0247 21.4728 97.2288 23.8908L97.8108 30.7865C97.9348 32.256 98.5957 33.6284 99.6673 34.6416L104.696 39.396C106.459 41.0631 107.044 43.6282 106.179 45.8952L103.712 52.3606C103.186 53.7384 103.186 55.2616 103.712 56.6394L106.179 63.1048C107.044 65.3718 106.459 67.9369 104.696 69.604L99.6673 74.3584C98.5957 75.3716 97.9348 76.744 97.8108 78.2135L97.2288 85.1093C97.0247 87.5272 95.3843 89.5842 93.0724 90.3212L86.4791 92.423C85.074 92.871 83.8831 93.8207 83.1337 95.0909L79.6174 101.051C78.3844 103.141 76.014 104.283 73.6112 103.944L66.7589 102.977C65.2986 102.77 63.8136 103.109 62.5873 103.929L56.8332 107.773C54.8155 109.121 52.1845 109.121 50.1668 107.773L44.4127 103.929C43.1864 103.109 41.7014 102.77 40.2411 102.977L33.3888 103.944C30.986 104.283 28.6156 103.141 27.3826 101.051L23.8663 95.0909C23.1169 93.8207 21.926 92.871 20.5209 92.423L13.9276 90.3212C11.6157 89.5842 9.9753 87.5272 9.77122 85.1092L9.18923 78.2135C9.0652 76.744 8.40429 75.3716 7.33269 74.3584L2.30428 69.604C0.541086 67.9369 -0.0443674 65.3718 0.82088 63.1048L3.28845 56.6394C3.81432 55.2616 3.81432 53.7384 3.28845 52.3606L0.820881 45.8952C-0.0443661 43.6282 0.541084 41.0631 2.30428 39.396L7.33269 34.6416C8.40429 33.6284 9.0652 32.256 9.18923 30.7865L9.77122 23.8907C9.9753 21.4728 11.6157 19.4158 13.9276 18.6788L20.5209 16.577C21.926 16.129 23.1169 15.1793 23.8663 13.9091L27.3826 7.94881C28.6156 5.85885 30.986 4.71731 33.3888 5.0564L40.2411 6.02343C41.7014 6.22952 43.1864 5.89057 44.4127 5.07129L50.1668 1.22691Z" fill="#FE6700"/>
</svg>
