<svg width="18" height="18" viewBox="0 0 18 18" fill="none" xmlns="http://www.w3.org/2000/svg">
<path d="M7.05288 2.10124C7.63805 0.230787 10.2853 0.23079 10.8704 2.10125L11.4328 3.899C11.694 4.73364 12.4671 5.30184 13.3416 5.30184H15.318C17.2371 5.30184 18.0546 7.74241 16.5227 8.89833L14.7951 10.2019C14.1205 10.7109 13.8387 11.589 14.091 12.3956L14.7199 14.4057C15.3005 16.2617 13.1588 17.7707 11.6064 16.5994L10.1663 15.5127C9.45331 14.9747 8.46999 14.9747 7.75698 15.5127L6.31688 16.5994C4.76451 17.7707 2.62279 16.2617 3.20344 14.4057L3.83232 12.3956C4.08464 11.589 3.8028 10.7109 3.12821 10.2019L1.40064 8.89833C-0.131248 7.74241 0.686235 5.30184 2.6053 5.30184H4.58169C5.45622 5.30184 6.22934 4.73364 6.49046 3.899L7.05288 2.10124Z" fill="#FE6700"/>
</svg>
